<svg xmlns="http://www.w3.org/2000/svg" viewBox="0 0 256 256"><defs><style>.cls-1{fill:#fd9414;}.cls-2,.cls-6{fill:#002947;}.cls-3{fill:#235a74;}.cls-4{fill:#478ba1;}.cls-5{fill:#6abcce;}.cls-6{font-size:28.8px;font-family:Futura-Bold, Futura;font-weight:700;}.cls-7{letter-spacing:0.01em;}.cls-8{letter-spacing:0em;}.cls-9{letter-spacing:0.01em;}.cls-10{fill:#feb938;}</style></defs><g id="Layer_2" data-name="Layer 2"><rect class="cls-1" width="256" height="256"/></g><g id="Layer_1" data-name="Layer 1"><path class="cls-2" d="M189.63,214.5H74.37A11.88,11.88,0,0,1,62.5,202.63V54.79a7.29,7.29,0,0,1,7.29-7.29H194.21a7.29,7.29,0,0,1,7.29,7.29V202.63A11.88,11.88,0,0,1,189.63,214.5Z"/><path class="cls-3" d="M187,212.5H71.71a11.88,11.88,0,0,1-11.88-11.87V52.79a7.29,7.29,0,0,1,7.29-7.29H191.55a7.28,7.28,0,0,1,7.28,7.29V200.63A11.87,11.87,0,0,1,187,212.5Z"/><path class="cls-4" d="M184.29,210.5H69a11.87,11.87,0,0,1-11.87-11.87V50.79a7.28,7.28,0,0,1,7.28-7.29H188.88a7.29,7.29,0,0,1,7.29,7.29V198.63A11.88,11.88,0,0,1,184.29,210.5Z"/><path class="cls-5" d="M181.63,208.5H66.37A11.88,11.88,0,0,1,54.5,196.63V48.79a7.29,7.29,0,0,1,7.29-7.29H186.21a7.29,7.29,0,0,1,7.29,7.29V196.63A11.88,11.88,0,0,1,181.63,208.5Z"/><text class="cls-6" transform="translate(79.48 95.68)"><tspan class="cls-7">N</tspan><tspan class="cls-8" x="26.47" y="0">o</tspan><tspan class="cls-9" x="46.71" y="0">t</tspan><tspan x="57.74" y="0">es</tspan></text><circle class="cls-10" cx="84.5" cy="116.5" r="5.5"/><circle class="cls-10" cx="84.5" cy="142.5" r="5.5"/><circle class="cls-10" cx="84.5" cy="168.5" r="5.5"/></g></svg>